<svg xmlns="http://www.w3.org/2000/svg" viewBox="0 0 87.05 25.14"><defs><style>.cls-1{fill:#fff;}</style></defs><g id="Warstwa_2" data-name="Warstwa 2"><g id="Warstwa_1-2" data-name="Warstwa 1"><path d="M12.05,5.54A3.5,3.5,0,0,0,8.61,2.71c-3,0-4.35,3.12-4.35,10.35A29.17,29.17,0,0,0,5,20.44a4.47,4.47,0,0,0,4.26,3.5A3.81,3.81,0,0,0,13,20.76a11.36,11.36,0,0,0,.24-1.91h2.91c-.15,2.09-.39,2.79-1.12,3.79-1.12,1.53-3.5,2.5-6.09,2.5C3.17,25.14,0,21,0,13.5S3.17,1.69,8.88,1.69c4.41,0,7.23,2.58,7.37,6.61H12.32A8.51,8.51,0,0,0,12.05,5.54Z"/><path d="M30.88,7.18c5.53,0,8.47,3.22,8.47,9.07s-2.87,8.89-8.29,8.89-8.33-3.08-8.33-8.89S25.63,7.18,30.88,7.18Zm.25,17c2.76,0,3.92-2.49,3.92-8.2,0-5.18-1.3-7.63-4-7.63s-4,2.45-4,7.63C27,21.74,28.19,24.13,31.13,24.13Z"/><path d="M52.58,7.67H57V9H52.58V20.73c0,1.71.63,2.52,1.89,2.52a3.94,3.94,0,0,0,2.21-.91l.59,1a9.08,9.08,0,0,1-1.82,1.16,7.13,7.13,0,0,1-2.9.63A4.11,4.11,0,0,1,49.36,24c-.77-.94-.94-1.86-.94-4.34V9H45.79V7.67h2.63v-7h4.16Z"/><path d="M70.08,7.67h4.41V9H70.08V20.73c0,1.71.63,2.52,1.89,2.52a3.94,3.94,0,0,0,2.21-.91l.59,1A9.08,9.08,0,0,1,73,24.51a7.13,7.13,0,0,1-2.9.63A4.11,4.11,0,0,1,66.86,24c-.77-.94-.94-1.86-.94-4.34V9H63.29V7.67h2.63v-7h4.16Z"/><path d="M86.45,7.67v17h-4.2v-17Z"/><polygon class="cls-1" points="62.21 0 64.62 3.94 70.08 0.69 70.08 0 62.21 0"/><polygon class="cls-1" points="44.71 0 47.12 3.94 52.58 0.69 52.58 0 44.71 0"/><polygon points="84.35 0.8 82.92 2.03 81.65 3.5 82.91 4.96 84.35 6.2 85.88 4.96 87.05 3.5 85.86 2.03 84.35 0.8"/></g></g></svg>