<?xml version="1.0" encoding="iso-8859-1"?>
<!-- Generator: Adobe Illustrator 21.0.0, SVG Export Plug-In . SVG Version: 6.00 Build 0)  -->
<svg xmlns="http://www.w3.org/2000/svg" xmlns:xlink="http://www.w3.org/1999/xlink" version="1.1" id="Capa_1" x="0px" y="0px" viewBox="0 0 509.545 509.545" style="enable-background:new 0 0 509.545 509.545;" xml:space="preserve" width="512" height="512">
<g>
	<path d="M384.975,3.822l-49.34,49.34L317.12,88.498l-6.18-19.227l-78.84,78.84l-23.844,59.34l-6.801-28.695l-94.438,94.439   l3.7,115.025L0,498.938l10.607,10.607l110.717-110.717l115.025,3.7l94.439-94.438l-28.695-6.801l59.34-23.844l78.84-78.84   l-19.227-6.18l35.336-18.515l49.34-49.34L509.545,0L384.975,3.822z M490.912,118.168l-43.518,43.518l-65.016,34.065l29.918,9.617   l-59.301,59.301l-100.34,40.318l48.521,11.5l-70.84,70.839l-94.473-3.039l256.343-256.343l-10.607-10.607L125.257,373.68   l-3.039-94.473l70.839-70.84l11.5,48.521l40.318-100.34l59.301-59.301l9.617,29.918l34.065-65.016l43.518-43.518l102.686-3.15   L490.912,118.168z"/>
	<g>
		<path d="M408.989,111.163l-10.607-10.607l10.606-10.606l10.607,10.607L408.989,111.163z M426.667,93.485L416.06,82.878    l10.606-10.606l10.607,10.607L426.667,93.485z"/>
	</g>
</g>















</svg>
